<svg xmlns="http://www.w3.org/2000/svg" viewBox="0 0 1024 1024"><defs/><defs><linearGradient id="a" x1="32.6%" x2="102.4%" y1="72.4%" y2="-9.4%"><stop offset="0%" stop-color="#50E3C2"/><stop offset="51.6%" stop-color="#51BED3"/><stop offset="100%" stop-color="#525BFF"/></linearGradient></defs><g fill="none" fill-rule="evenodd"><path fill="url(#a)" d="M366 237a128 128 0 01-85 216c-3-43 2-80 15-113 12-31 35-65 69-102zm-94-41c18 0 34 4 50 10-38 42-63 82-76 119-12 35-18 75-17 120a129 129 0 0143-249z" transform="rotate(15 272 324)"/><g fill="#111B4D" fill-rule="nonzero"><path d="M222 556v-53l2-27 1-7s0-2 0 0v-1l1-4a289 289 0 0117-63l2-5c0-1 1-2 0 0v-2l2-3 5-11a310 310 0 0127-44l3-5 1-1 2-3a280 280 0 0145-45l5-4 2-2 1-1a283 283 0 0155-33l5-2 3-1c1-1 0 0 0 0l2-1a257 257 0 0170-19l4-1a282 282 0 01157 25 298 298 0 01153 172 293 293 0 0112 52c0 1 0 0 0 0l1 2v4c3 25 2 50 2 75v8c0 6 5 11 10 11 6-1 11-5 11-11v-54a311 311 0 00-439-278 311 311 0 00-181 250c-2 24-1 49-1 74v8c0 5 4 11 10 10 6 0 10-4 10-10z"/><path d="M349 595v187l-1 4-1 1a49 49 0 01-4 7c1-2 0 0 0 0l-2 2-2 2-1 1h-1l-5 3c-1 1 2 0 0 0l-1 1a34 34 0 01-6 1h-1-88-1l-2-1h-1l-2-1-1-1-2-2-1-1-2-3-1-1c0-1 1 1 0 0l-1-3v-1-1-1-1-38-73-75-43-2l-10 10h113s1 1 0 0l1 1 4 1h2l3 2 3 2s1 1 0 0l1 1 3 3 1 1a49 49 0 015 8 34 34 0 011 5v5c0 5 5 11 11 10 5 0 10-4 10-10 0-22-15-42-36-48-8-2-16-2-25-2h-97c-6 0-11 5-11 11v229c0 10 3 20 10 28s17 12 28 12h75c12 0 23-1 34-8 14-9 22-25 22-42v-45-79-53-3c0-5-5-11-10-10-6 0-11 4-11 10zM801 556v238c-1 0-1 1 0 0a18 18 0 01-2 3l-1 1-2 2-1 1-1 1-3 2h-3c-1 0-2 1 0 0l-2 1h-1-83l-2-1-8-2-2-1-4-2s-1-1 0 0l-1-1-3-3-1-2c1 2 0 0 0 0l-3-3-1-2-1-5-1-3v-3-1-19-90-70-2-1-4c0 2 0 0 0 0l1-3 1-3c1-2 0 1 0 0l1-2a28 28 0 017-8l1-2c1-1-2 2 0 0l3-2 2-1h1l7-2h1l2-1h110c5 0 10-4 10-10s-4-10-10-10H705c-22 0-42 13-49 34-2 9-2 18-2 26v170c0 13 5 25 14 34 9 10 21 15 34 15h90a37 37 0 0030-39v-62-98-67-3c0-5-5-11-10-10-6 0-11 4-11 10z"/></g></g></svg>