<svg xmlns="http://www.w3.org/2000/svg" viewBox="0 0 1024 1024"><defs/><defs><linearGradient id="a" x1="70.2%" x2="100%" y1="50%" y2="50%"><stop offset="0%" stop-color="#415EFF"/><stop offset="100%" stop-color="#C745FD"/></linearGradient></defs><g fill="none" fill-rule="evenodd"><path fill="url(#a)" d="M654 339c15 0 30 0 41 10 8 6 17 20 22 29l4 9-23 24a41 41 0 01-58-58zm-177 0h115l-58 59a41 41 0 01-58-58l1-1zm438-203c16 16 16 42 0 58L799 310c-15-25-37-43-62-54l120-120c16-16 42-16 58 0zm-193 16c16 16 16 42 0 58l-37 36H570l94-94c16-16 42-16 58 0z"/><path fill="#111B4D" fill-rule="nonzero" d="M686 265c42 0 81 23 100 61l71 132 18-2c7-1 13-4 18-10l3-3c13-15 33-22 53-18l23 4a33 33 0 016 64l-18 7c-10 4-21 5-33 5l-32-1c29 27 44 67 39 106v2l-9 66-5 18-3 8c-3 9-3 19-1 28l2 9c2 9 1 18-2 27l-11 29a71 71 0 01-66 46h-71c-8 0-17-2-24-6l-14-6-7-2H301l-7 2-14 6c-7 4-16 6-24 6h-71c-30 0-56-18-67-46l-11-29c-3-9-3-18-1-26v-1l2-8c2-9 1-19-2-28l-3-9-4-18-9-66c-5-40 9-80 37-107l1-1-32 1c-11 0-22-1-32-5l-18-7a33 33 0 016-64l22-4c20-4 40 3 53 18l4 3c4 6 11 9 18 10l18 2 70-132c20-37 58-60 99-61h350zm0 21H337c-34 0-66 19-82 49l-73 139c-2 4-6 6-10 5l-26-3c-11-1-22-7-30-15l-4-4c-8-10-21-14-34-12l-22 4a13 13 0 00-2 25l16 6c8 4 17 5 26 5l59-2c10-1 14 11 8 17l-20 18c-25 23-37 57-33 91l9 66 4 14 2 8c5 13 6 27 3 40l-2 9c-1 5-1 10 1 15l10 29c8 19 27 32 47 33h72c5 0 10-2 15-4l14-7 15-3h423c5 0 11 1 16 3l14 7 14 4h72c21 0 40-14 47-33l11-29c2-5 2-10 1-15l-2-8c-3-13-2-27 2-40l3-9 4-14 8-66c5-34-7-68-32-91l-20-17c-7-7-2-18 7-18l60 2c8 0 17-1 24-4l18-7a13 13 0 00-2-25l-22-4c-13-2-26 2-35 12l-3 3c-8 9-19 15-31 16l-25 3c-4 1-8-1-10-5l-74-139a93 93 0 00-81-49h-1zm33 452a10 10 0 010 20H330a10 10 0 010-20h389zM156 548c13-9 30-9 43 1h-1 1c24 17 54 33 104 54l4 2 1 1a26 26 0 01-11 50h-10l-91 5a62 62 0 01-40-113zm669 1c13-10 30-10 42-1a62 62 0 01-39 113l-29-2-73-3a26 26 0 01-10-50v-1c53-23 85-39 109-56zm-639 16c-5-4-12-4-18 0a42 42 0 00-15 47v1c6 17 23 28 42 27l101-5a6 6 0 003-11l-3-1c-51-23-83-39-108-57h-1l-1-1zm669 0c-5-4-12-4-17 0h-1c-25 19-57 35-108 57l-4 2c-2 1-4 4-3 6 0 3 3 5 5 5l102 5a42 42 0 0026-75zM349 305h46l280 1c24 0 47 13 60 33l60 98a22 22 0 01-18 33H247a22 22 0 01-18-34l60-98c13-21 35-33 60-33zm20 20h-20c-18 0-34 9-43 24l-60 98a1 1 0 001 2l377 1h152l2-1v-1l-61-98c-9-15-25-23-42-24l-306-1z"/></g></svg>