<svg xmlns="http://www.w3.org/2000/svg" viewBox="0 0 1024 1024"><defs/><defs><linearGradient id="a" x1="3.6%" x2="94.4%" y1="49.5%" y2="20.9%"><stop offset="0%" stop-color="#F8559F"/><stop offset="100%" stop-color="#415EFF"/><stop offset="100%" stop-color="#415EFF"/></linearGradient></defs><g fill="none" fill-rule="evenodd"><g fill="#111B4D"><path fill-rule="nonzero" d="M676 245c47 0 88 22 122 63 29 36 52 84 70 144a1001 1001 0 0144 300v3c0 40-8 74-24 99a88 88 0 01-77 43c-30 0-55-10-76-28l-1-1c-14-13-25-27-43-55l-8-13-2-4c-16-23-26-37-40-48v-1c-19-15-41-23-69-23H391c-28 0-50 8-69 23l-1 1c-14 12-25 27-43 54l-7 13-3 3c-15 24-26 38-40 50v1c-21 18-46 28-76 28-33 0-59-16-77-43-16-25-23-59-23-99v-3a1164 1164 0 0143-300c18-60 41-108 70-144 34-41 74-63 122-63 21 0 39 4 61 13h2l26 12 2 1a261 261 0 00165 14c14-3 27-8 42-14l3-2 23-10 2-1c22-9 41-13 63-13zm0 31c-18 0-32 3-51 11h-2l-6 3-18 9-3 1a277 277 0 01-230-1l-3-1-25-11-1-1c-19-7-33-10-50-10-72 0-126 66-163 185a1128 1128 0 00-42 293l1 2c0 34 6 62 18 81s29 29 51 29c23 0 40-7 55-21h1c12-11 21-23 37-48l8-12 2-3c18-28 30-44 47-58h1c24-21 52-31 88-31h181c35 0 64 10 88 31 18 14 31 30 50 61l8 13 2 3c15 22 24 33 35 43l1 1c15 14 32 21 55 21 22 0 39-10 51-29s19-47 19-82v-3c-1-36-4-81-9-127l-1-3c-7-58-18-113-33-161-36-119-90-185-162-185z"/><path d="M308 409a84 84 0 0168 132 86 86 0 01-84 34c-33-7-62-35-67-71-5-30 9-63 36-81 13-9 30-14 46-14h1zm0 25c-21 0-42 12-52 31-9 16-9 36-1 53 11 23 38 37 64 32 18-3 34-16 42-32s8-36-1-52a60 60 0 00-52-32zM647 405a24 24 0 11-1 47 24 24 0 011-47zM647 533a24 24 0 11-1 47 24 24 0 011-47zM734 492a24 24 0 11-47 0 24 24 0 0147 0zM606 492a24 24 0 11-47 0 24 24 0 0147 0z"/></g><path fill="url(#a)" d="M625 164c56 0 102 48 137 142a154 154 0 01-175-135c14-5 25-7 38-7zM740 0a154 154 0 0181 285c-17-47-37-85-62-115a171 171 0 00-164-67C615 43 673 0 740 0z" transform="translate(51 128)"/></g></svg>