<svg xmlns="http://www.w3.org/2000/svg" viewBox="0 0 1024 1024"><defs/><defs><linearGradient id="a" x1="93%" x2="37.2%" y1="1.6%" y2="61.6%"><stop offset="0%" stop-color="#4793E6"/><stop offset="100%" stop-color="#50E2C2"/></linearGradient></defs><g fill="none" fill-rule="evenodd"><path fill="url(#a)" d="M832 500a128 128 0 010 252zm-64 6v240a128 128 0 010-240z"/><path fill="#111B4D" fill-rule="nonzero" d="M514 163c4-3 9-3 13 0l353 247a11 11 0 11-13 19l-53-37v436c0 19-15 34-34 34H252c-19 0-34-15-34-34V388l-62 41c-5 4-12 2-15-3h-1c-3-5-2-13 4-16l131-87V221a11 11 0 0123 0v86zm7 35L246 378c-3 3-5 6-5 10v440c0 6 5 12 11 12h172V646c0-7 5-12 11-12h161c6 0 11 5 12 11v190l-1 5h173c6 0 11-6 11-12V388c0-4-2-7-5-10L521 198zm64 459H447v183h139l-1-5V657zm-69-270a92 92 0 110 184 92 92 0 010-184zm0 23a69 69 0 100 138 69 69 0 000-138z"/></g></svg>