<svg xmlns="http://www.w3.org/2000/svg" viewBox="0 0 1024 1024"><defs/><defs><linearGradient id="a" x1="74.7%" x2="21%" y1="78.3%" y2="3.9%"><stop offset="0%" stop-color="#FE6A55"/><stop offset="100%" stop-color="#F8559F"/></linearGradient><linearGradient id="b" x1="74.4%" x2="21.3%" y1="78.3%" y2="3.9%"><stop offset="0%" stop-color="#FE6A55"/><stop offset="100%" stop-color="#F8559F"/></linearGradient></defs><g fill="none" fill-rule="evenodd"><path fill="url(#a)" d="M238 205l89 111a48 48 0 11-74 61L114 205h124zM86 18l87 107H49L11 78a48 48 0 1175-60z" transform="translate(351 100)"/><path fill="url(#b)" d="M549 322l75 92a48 48 0 01-75 60V322zm-94-117l14 18v152L331 205h124zM342 66l48 59H266a48 48 0 0176-59z" transform="translate(351 100)"/><path fill="#111B4D" fill-rule="nonzero" d="M850 252H96c-12 0-21 10-21 21v447c0 12 9 21 21 21h754c12 0 21-9 21-21V273c0-11-9-21-21-21zm-1 22v445H97V274h752z"/><path fill="#111B4D" fill-rule="nonzero" d="M895 719H51c-7 0-13 6-13 13v24c0 20 16 36 37 36h797c20 0 36-16 36-36v-24c0-7-6-13-13-13zM60 741h826v15c0 8-6 14-14 14H74c-8 0-14-7-14-14v-15z"/></g></svg>