<svg xmlns="http://www.w3.org/2000/svg" viewBox="0 0 1024 1024"><defs/><defs><linearGradient id="a" x1="0%" x2="100%" y1="100%" y2="0%"><stop offset="0%" stop-color="#FE559C"/><stop offset="31%" stop-color="#D957AF"/><stop offset="58.1%" stop-color="#B858C1"/><stop offset="100%" stop-color="#415EFF"/><stop offset="100%" stop-color="#415EFF"/></linearGradient></defs><g fill="none" fill-rule="evenodd"><path fill="url(#a)" d="M308 499v256c-59-11-104-64-104-128s45-117 104-128zm72 7c47 20 80 66 80 121s-33 101-80 121z"/><path fill="#111B4D" fill-rule="nonzero" d="M635 161c31 0 56 26 56 59v584c0 32-25 59-56 59H388c-31 0-56-27-56-59V220c0-33 25-59 56-59h247zm-215 26h-32c-18 0-32 14-32 33v584c0 18 14 33 32 33h247c18 0 32-15 32-33V220c0-19-14-33-32-33h-32l-15 21-4 2H439l-4-2-15-21z"/></g></svg>