<svg xmlns="http://www.w3.org/2000/svg" viewBox="0 0 1024 1024"><defs/><defs><linearGradient id="a" x1="100%" x2="54.1%" y1="16.8%" y2="48.1%"><stop offset="0%" stop-color="#CB45FE"/><stop offset="100%" stop-color="#415EFF"/><stop offset="100%" stop-color="#415EFF"/></linearGradient><linearGradient id="b" x1="100%" x2="54.1%" y1="13.5%" y2="47.9%"><stop offset="0%" stop-color="#CB45FE"/><stop offset="100%" stop-color="#415EFF"/><stop offset="100%" stop-color="#415EFF"/></linearGradient></defs><g fill="none" fill-rule="evenodd"><g fill="#111B4D" fill-rule="nonzero"><path d="M131 204h762c19 0 34 15 34 33v471c0 18-15 33-34 33H131c-18 0-33-15-33-33V237c0-18 15-33 33-33zm0 22c-6 0-11 5-11 11v471c0 6 5 11 11 11h762c6 0 11-5 11-11V237c0-6-5-11-11-11H131zM321 821h405a11 11 0 000-23H321a11 11 0 000 23z"/><path d="M669 731v90h22v-90zM355 731v90h23v-90z"/></g><path fill="url(#a)" d="M133 53v114l-42 30a48 48 0 01-66-10 45 45 0 019-63l99-71zm125-33a45 45 0 01-9 63l-52 37V7c20-11 46-6 61 13z" transform="matrix(1 0 0 -1 752 715)"/><path fill="url(#b)" d="M133 233v118l-58 45a46 46 0 01-65-9 48 48 0 019-67l114-87zm129-42v1c16 21 12 51-9 67l-56 43V184l1-1c20-15 48-12 64 8z" transform="matrix(1 0 0 -1 752 715)"/></g></svg>